<svg xmlns="http://www.w3.org/2000/svg" version="1.1" xmlns:xlink="http://www.w3.org/1999/xlink" xmlns:svgjs="http://svgjs.dev/svgjs" width="1000" height="623" viewBox="0 0 1000 623"><g transform="matrix(1,0,0,1,-0.6060606060606233,0.2522267206477409)"><svg viewBox="0 0 396 247" data-background-color="#ffffff" preserveAspectRatio="xMidYMid meet" height="623" width="1000" xmlns="http://www.w3.org/2000/svg" xmlns:xlink="http://www.w3.org/1999/xlink"><defs></defs><g id="tight-bounds" transform="matrix(1,0,0,1,0.2400000000000091,-0.09999999999999432)"><svg viewBox="0 0 395.52 247.2" height="247.2" width="395.52"><g><svg></svg></g><g><svg viewBox="0 0 395.52 247.2" height="247.2" width="395.52"><g transform="matrix(1,0,0,1,75.54432,92.84820141041017)"><svg viewBox="0 0 244.43135999999998 61.50359717917965" height="61.50359717917965" width="244.43135999999998"><g><svg viewBox="0 0 244.43135999999998 61.50359717917965" height="61.50359717917965" width="244.43135999999998"><g><svg viewBox="0 0 244.43136 61.50359717917966" height="61.50359717917965" width="244.43135999999998"><g><svg viewBox="0 0 244.43136 61.50359717917966" height="61.50359717917966" width="244.43136"><g><svg viewBox="0 0 244.43136 61.50359717917966" height="61.50359717917966" width="244.43136"><g><svg viewBox="0 0 244.43136 61.50359717917966" height="61.50359717917966" width="244.43136"><g transform="matrix(1,0,0,1,0,0)"><svg width="244.43136" viewBox="3.299999952316284 -39.599998474121094 208.42999267578125 52.44999694824219" height="61.50359717917966" data-palette-color="#8abe53"><path d="M28.1-25.7Q32.4-25.7 34.1-22.85 35.8-20 35.8-15.15L35.8-15.15Q35.8-5.6 35.75-1.25L35.75-1.25Q35.75-0.7 35.43-0.35 35.1 0 34.45 0L34.45 0Q33.15 0 33.15-1.35L33.15-1.35 33.2-14.85Q33.2-19.25 32.13-21.35 31.05-23.45 28-23.45L28-23.45Q25.05-23.45 23.73-20.53 22.4-17.6 22.35-13.25L22.35-13.25Q22.3-9.15 22.3-1.35L22.3-1.35Q22.3-0.1 20.95-0.1L20.95-0.1Q20.2-0.1 19.9-0.43 19.6-0.75 19.6-1.45L19.6-1.45 19.65-10.85 19.65-13.25Q19.6-17.3 18.03-20.28 16.45-23.25 13.7-23.25L13.7-23.25Q11.6-23.25 10.25-21.28 8.9-19.3 8.05-14.8L8.05-14.8Q7.75-13 7.65-10.98 7.55-8.95 7.55-5.9L7.55-5.9 7.55-3.9 7.55-1.25Q7.55-0.7 7.18-0.43 6.8-0.15 6.25-0.15L6.25-0.15Q4.95-0.15 4.95-1.3L4.95-1.3Q4.95-10.6 4.8-20.35L4.8-20.35Q4.75-21.5 4.5-22.05 4.25-22.6 4.03-22.85 3.8-23.1 3.75-23.15L3.75-23.15Q3.65-23.25 3.48-23.4 3.3-23.55 3.3-23.75L3.3-23.75Q3.3-24.35 3.73-24.73 4.15-25.1 4.65-25.1L4.65-25.1Q4.95-25.1 5.35-24.75 5.75-24.4 6.05-23.95L6.05-23.95Q6.6-23.25 6.83-22.43 7.05-21.6 7.05-20.05L7.05-20.05 7.05-18.7Q7.9-22.25 9.7-23.9 11.5-25.55 13.85-25.55L13.85-25.55Q19.4-25.55 20.85-18.65L20.85-18.65Q21.45-22.1 23.3-23.9 25.15-25.7 28.1-25.7L28.1-25.7ZM49.65 12.85Q49 12.85 48.57 12.5 48.15 12.15 48.15 11.6L48.15 11.6Q48.15 11.3 48.3 11L48.3 11Q51.15 4.45 53.25-1.75L53.25-1.75Q50.15-3.8 46.9-10.08 43.65-16.35 41.45-23.75L41.45-23.75Q41.35-24.1 41.4-24.3L41.4-24.3Q41.45-24.75 41.82-25.05 42.2-25.35 42.85-25.35L42.85-25.35Q43.35-25.35 43.57-25.13 43.8-24.9 43.95-24.3L43.95-24.3Q46.5-16.4 49.3-11.15 52.1-5.9 54.25-4.45L54.25-4.45Q55.9-9.7 56.97-13.68 58.05-17.65 59.7-24.45L59.7-24.45Q59.85-25.05 60.12-25.28 60.4-25.5 60.95-25.5L60.95-25.5Q62.3-25.5 62.55-24.4L62.55-24.4Q62.6-24.25 62.55-24.13 62.5-24 62.5-23.9L62.5-23.9Q60.65-16.3 59.65-12.63 58.65-8.95 56.95-4.2L56.95-4.2Q55.9-1.15 54.12 3.58 52.35 8.3 50.95 11.75L50.95 11.75Q50.7 12.35 50.42 12.6 50.15 12.85 49.65 12.85L49.65 12.85ZM78.55-0.15Q77.75-0.15 77.22-0.53 76.7-0.9 76.5-1.6L76.5-1.6Q75.8-3.7 74.82-7.75 73.85-11.8 72.9-15.9L72.9-15.9 72.1-19.45Q71.45-22.25 69.6-29.15L69.6-29.15 68.45-33.45Q68.4-33.6 68.4-34L68.4-34Q68.4-34.5 68.77-34.8 69.15-35.1 69.8-35.1L69.8-35.1Q70.35-35.1 70.62-34.88 70.9-34.65 71.05-34.05L71.05-34.05 72-30.55Q73.9-23.4 74.75-20.05L74.75-20.05 75.9-15.05Q77.15-9.45 77.82-6.7 78.5-3.95 78.85-3.95L78.85-3.95Q79.15-3.95 79.95-5.65 80.75-7.35 82.4-11.2L82.4-11.2 83.6-14Q85.05-17.45 85.72-18.73 86.4-20 87-20L87-20Q87.7-20 88.52-18.6 89.35-17.2 91.2-13.3L91.2-13.3 92.3-11.05 93.35-8.85Q94.75-5.95 95.3-4.93 95.85-3.9 96.05-3.9L96.05-3.9Q96.3-3.9 96.87-6.6 97.45-9.3 98.45-14.55L98.45-14.55Q98.7-15.75 98.97-17.13 99.25-18.5 99.55-20L99.55-20Q100.75-25.75 102.25-32L102.25-32 102.75-34.15Q102.95-35.1 104-35.1L104-35.1Q104.6-35.1 105.02-34.77 105.45-34.45 105.45-33.85L105.45-33.85Q105.45-33.55 105.4-33.4L105.4-33.4Q103.35-25.2 102.15-19.5L102.15-19.5 100.9-13.35Q99.05-4.5 98.45-1.85L98.45-1.85Q98.05-0.25 96.4-0.25L96.4-0.25Q95.35-0.25 94.25-1.93 93.15-3.6 90.85-8.35L90.85-8.35 88.9-12.5Q87.4-16 87.15-16L87.15-16Q87-16 86.5-14.88 86-13.75 85.4-12.25L85.4-12.25 83.7-8.05Q81.7-3.4 80.62-1.78 79.55-0.15 78.55-0.15L78.55-0.15ZM134.89-2.5Q135.49-2.4 135.79-2.18 136.09-1.95 136.09-1.35L136.09-1.35Q136.09-0.8 135.79-0.48 135.49-0.15 134.99-0.15L134.99-0.15Q132.99-0.15 132.07-0.88 131.14-1.6 130.54-3.55L130.54-3.55Q129.44-1.65 127.34-0.63 125.24 0.4 122.34 0.4L122.34 0.4Q118.19 0.4 115.72-1.53 113.24-3.45 112.24-6.2 111.24-8.95 111.24-11.8L111.24-11.8Q111.24-15.05 112.52-17.98 113.79-20.9 116.37-22.75 118.94-24.6 122.64-24.6L122.64-24.6Q128.09-24.6 130.49-20.3L130.49-20.3 130.84-22.95Q130.89-23.6 131.14-23.95 131.39-24.3 132.04-24.3L132.04-24.3Q132.79-24.3 133.19-23.95 133.59-23.6 133.49-23.15L133.49-23.15Q133.09-20.5 132.84-17.55L132.84-17.55Q132.64-15.4 132.64-11.75L132.64-11.75 132.64-8.5Q132.64-6 132.77-4.83 132.89-3.65 133.37-3.1 133.84-2.55 134.89-2.5L134.89-2.5ZM129.94-8.55Q129.99-11 129.99-14.5L129.99-14.5Q129.99-17.4 128.74-19.15 127.49-20.9 125.84-21.58 124.19-22.25 122.69-22.25L122.69-22.25Q119.69-22.25 117.72-20.58 115.74-18.9 114.84-16.48 113.94-14.05 113.94-11.8L113.94-11.8Q113.94-9.65 114.67-7.43 115.39-5.2 117.24-3.6 119.09-2 122.24-2L122.24-2Q125.49-2 127.69-3.68 129.89-5.35 129.94-8.55L129.94-8.55ZM145.09-0.45Q144.49-0.45 144.12-0.78 143.74-1.1 143.74-1.8L143.74-1.8 143.44-38.25Q143.44-38.9 143.84-39.25 144.24-39.6 144.89-39.6L144.89-39.6Q146.19-39.6 146.19-38.25L146.19-38.25 146.44-1.8Q146.44-0.45 145.09-0.45L145.09-0.45ZM156.79-0.45Q156.19-0.45 155.81-0.78 155.44-1.1 155.44-1.8L155.44-1.8 155.14-38.25Q155.14-38.9 155.54-39.25 155.94-39.6 156.59-39.6L156.59-39.6Q157.89-39.6 157.89-38.25L157.89-38.25 158.14-1.8Q158.14-0.45 156.79-0.45L156.79-0.45ZM178.24 0.1Q174.13 0.1 171.24-1.7 168.34-3.5 166.86-6.4 165.38-9.3 165.38-12.65L165.38-12.65Q165.38-16.1 166.94-19.1 168.49-22.1 171.41-23.88 174.34-25.65 178.19-25.65L178.19-25.65Q181.53-25.65 184.19-24.28 186.84-22.9 188.31-20.48 189.78-18.05 189.78-15L189.78-15Q189.78-13.6 189.46-13.1 189.13-12.6 187.88-12.55L187.88-12.55 167.99-12.05Q167.99-9.65 169.24-7.4 170.49-5.15 172.78-3.73 175.09-2.3 178.19-2.3L178.19-2.3Q180.53-2.3 182.13-3.03 183.74-3.75 184.66-4.67 185.59-5.6 186.84-7.2L186.84-7.2Q187.09-7.55 187.63-7.55L187.63-7.55Q188.13-7.55 188.56-7.18 188.99-6.8 188.99-6.3L188.99-6.3Q188.99-5.9 188.63-5.45L188.63-5.45Q187.03-3.1 184.74-1.5 182.44 0.1 178.24 0.1L178.24 0.1ZM167.99-14.3L187.03-14.85Q187.28-14.85 187.36-15 187.44-15.15 187.44-15.5L187.44-15.5Q187.44-17.7 186.26-19.5 185.09-21.3 182.99-22.3 180.88-23.3 178.28-23.3L178.28-23.3Q175.24-23.3 172.88-21.8 170.53-20.3 169.26-18.18 167.99-16.05 167.99-14.3L167.99-14.3ZM210.48-7.55Q211.18-7.55 211.46-7.2 211.73-6.85 211.73-5.9L211.73-5.9Q211.73-3.5 210.16-1.75 208.58 0 206.03 0L206.03 0Q202.48 0 200.96-3.5 199.43-7 199.43-13.65L199.43-13.65Q199.43-16.75 199.73-20.05L199.73-20.05 195.98-20.35Q194.93-20.45 194.93-21.6L194.93-21.6Q194.93-22.2 195.26-22.5 195.58-22.8 196.18-22.7L196.18-22.7Q198.43-22.5 199.93-22.45L199.93-22.45Q200.28-26.3 201.18-32.35L201.18-32.35Q201.28-32.95 201.58-33.23 201.88-33.5 202.53-33.5L202.53-33.5Q203.18-33.5 203.56-33.15 203.93-32.8 203.88-32.2L203.88-32.2Q203.23-27.8 202.58-22.3L202.58-22.3Q205.88-22.2 207.13-22.2L207.13-22.2Q208.28-22.2 208.28-21.15L208.28-21.15Q208.28-20.5 208.01-20.25 207.73-20 206.98-19.95L206.98-19.95 204.58-19.9 202.38-19.95Q202.08-16.65 202.08-13.5L202.08-13.5Q202.08-8.45 203.01-5.43 203.93-2.4 206.23-2.4L206.23-2.4Q207.48-2.4 208.38-3.33 209.28-4.25 209.33-6.25L209.33-6.25Q209.33-6.9 209.53-7.23 209.73-7.55 210.48-7.55L210.48-7.55Z" opacity="1" transform="matrix(1,0,0,1,0,0)" fill="#8abe53" class="undefined-text-0" data-fill-palette-color="primary" id="text-0"></path></svg></g></svg></g></svg></g></svg></g></svg></g></svg></g></svg></g><g><path d="M151.089 168.871A122.216 122.216 0 1 0 151.089 78.329L156.635 78.329A116.669 116.669 0 1 1 156.635 168.871L151.089 168.871" fill="#8abe53" stroke="transparent" data-fill-palette-color="tertiary"></path></g></svg></g></svg><rect width="395.52" height="247.2" fill="none" stroke="none" visibility="hidden"></rect></g></svg></g></svg>